HIERARCHY
ROOT Hips
{
 OFFSET 0.000000 0.000000 0.000000
 CHANNELS 6 Xposition Yposition Zposition Yrotation Xrotation Zrotation
 JOINT Chest
 {
  OFFSET 0.000000 10.354800 0.006500
  CHANNELS 3 Yrotation Xrotation Zrotation
  JOINT Chest2
  {
   OFFSET 0.000000 10.435800 -0.013200
   CHANNELS 3 Yrotation Xrotation Zrotation
   JOINT Chest3
   {
    OFFSET 0.000000 10.393700 0.000000
    CHANNELS 3 Yrotation Xrotation Zrotation
    JOINT Chest4
    {
     OFFSET 0.000000 10.383100 0.000000
     CHANNELS 3 Yrotation Xrotation Zrotation
     JOINT Neck
     {
      OFFSET 0.000000 15.694000 0.000000
      CHANNELS 3 Yrotation Xrotation Zrotation
      JOINT Head
      {
       OFFSET 0.000000 9.711000 -0.028000
       CHANNELS 3 Yrotation Xrotation Zrotation
       End Site
       {
        OFFSET 0.000000 18.578700 -0.014800
       }
      }
     }
     JOINT RightCollar
     {
      OFFSET -3.157200 10.367500 0.000000
      CHANNELS 3 Yrotation Xrotation Zrotation
      JOINT RightShoulder
      {
       OFFSET -14.482500 0.000000 0.000000
       CHANNELS 3 Yrotation Xrotation Zrotation
       JOINT RightElbow
       {
        OFFSET 0.000000 -31.707800 0.000000
        CHANNELS 3 Yrotation Xrotation Zrotation
        JOINT RightWrist
        {
         OFFSET 0.000000 -25.659300 0.000000
         CHANNELS 3 Yrotation Xrotation Zrotation
         End Site
         {
          OFFSET 0.000000 -18.994300 0.000000
         }
        }
       }
      }
     }
     JOINT LeftCollar
     {
      OFFSET 3.157200 10.367500 0.000000
      CHANNELS 3 Yrotation Xrotation Zrotation
      JOINT LeftShoulder
      {
       OFFSET 14.482500 0.000000 0.000000
       CHANNELS 3 Yrotation Xrotation Zrotation
       JOINT LeftElbow
       {
        OFFSET 0.000000 -31.707800 0.000000
        CHANNELS 3 Yrotation Xrotation Zrotation
        JOINT LeftWrist
        {
         OFFSET 0.000000 -25.659300 0.000000
         CHANNELS 3 Yrotation Xrotation Zrotation
         End Site
         {
          OFFSET 0.000000 -18.994300 0.000000
         }
        }
       }
      }
     }
    }
   }
  }
 }
 JOINT RightHip
 {
  OFFSET -8.365600 -0.032100 -0.003200
  CHANNELS 3 Yrotation Xrotation Zrotation
  JOINT RightKnee
  {
   OFFSET 0.000000 -43.980000 0.003100
   CHANNELS 3 Yrotation Xrotation Zrotation
   JOINT RightAnkle
   {
    OFFSET 0.000000 -42.882800 0.005200
    CHANNELS 3 Yrotation Xrotation Zrotation
    JOINT RightToe
    {
     OFFSET 0.000000 -4.915500 10.826300
     CHANNELS 3 Yrotation Xrotation Zrotation
     End Site
     {
      OFFSET 0.000000 -1.517500 6.175900
     }
    }
   }
  }
 }
 JOINT LeftHip
 {
  OFFSET 8.365600 -0.032100 -0.003200
  CHANNELS 3 Yrotation Xrotation Zrotation
  JOINT LeftKnee
  {
   OFFSET 0.000000 -43.980000 0.003100
   CHANNELS 3 Yrotation Xrotation Zrotation
   JOINT LeftAnkle
   {
    OFFSET 0.000000 -42.882800 0.005200
    CHANNELS 3 Yrotation Xrotation Zrotation
    JOINT LeftToe
    {
     OFFSET 0.000000 -4.915500 10.826300
     CHANNELS 3 Yrotation Xrotation Zrotation
     End Site
     {
      OFFSET 0.000000 -1.517500 6.175900
     }
    }
   }
  }
 }
}
MOTION
Frames: 9
Frame Time: 0.008333
0.000000 91.618600 0.000000 0.000000 -5.767877 0.000000 0.000000 11.653817 0.000000 0.000000 -5.885947 0.000000 0.000000 -0.000000 0.000000 0.000000 -0.000000 0.000000 0.000000 12.528835 0.000000 0.000000 0.711642 0.000000 0.000000 -0.000000 0.000000 0.000000 0.000000 -90.000000 0.000000 -2.309062 0.000000 0.000000 2.309062 0.000000 0.000000 -0.000000 0.000000 0.000000 -0.000000 90.000000 0.000000 -2.309062 0.000000 0.000000 2.309062 0.000000 0.000000 8.520406 0.000000 0.000000 1.905762 0.000000 -0.000000 -4.658285 0.000000 0.000000 -0.000000 0.000000 0.000000 8.520406 0.000000 0.000000 1.905762 0.000000 -0.000000 -4.658285 0.000000 0.000000 -0.000000 0.000000
-11.676473 147.167204 25.974628 178.804443 -22.498602 -3.117301 -1.672269 11.273212 2.350984 -0.136071 0.794431 0.190226 -0.231342 1.362251 0.324658 -1.569045 10.332526 2.342368 -0.704814 20.374861 -1.675868 -0.378416 -4.092049 -1.613090 4.887115 6.679387 -3.534806 -5.607882 -9.509366 -14.793212 -138.569255 -72.812373 151.306331 -16.090907 -6.801582 -18.436361 -2.597942 10.161994 1.451824 14.502607 -7.443695 0.505271 134.100782 -61.032353 -159.174176 16.469808 -2.552342 40.096197 11.064295 -56.000300 -12.568483 -137.298328 74.241040 -130.393786 0.313436 -21.775378 4.371444 0.031513 -0.174899 0.018648 -15.228117 -55.941661 9.686911 138.368035 78.030943 135.945660 -4.195840 -20.648364 -2.172249 0.019586 0.144976 0.008897
-11.340411 140.674349 26.133841 178.825282 -22.501011 -3.169301 -1.683336 11.276840 2.396214 -0.136192 0.794432 0.190208 -0.231479 1.363079 0.324461 -1.573580 10.331767 2.343248 -0.707253 20.382091 -1.673832 -0.382418 -4.081773 -1.608304 4.886292 6.682964 -3.532115 -5.617732 -9.523940 -14.777833 -138.706371 -72.795950 151.418609 -16.087309 -6.799782 -18.423803 -2.593891 10.162906 1.449374 14.521760 -7.448795 0.481855 134.153754 -61.039302 -159.220677 16.403334 -2.609492 40.146714 10.982852 -56.016823 -12.490270 -137.327192 74.229612 -130.423171 0.319028 -21.830948 4.371770 0.024394 -0.121899 0.011066 -15.310867 -55.913333 9.769990 138.336154 78.051169 135.913471 -4.255181 -20.595980 -2.144836 -0.006190 0.096479 -0.002822
-11.056077 135.327542 26.265876 178.849336 -22.500704 -3.256024 -1.689916 11.278459 2.475647 -0.136311 0.794432 0.190195 -0.231914 1.361595 0.324695 -1.577676 10.331809 2.342383 -0.710572 20.391303 -1.669780 -0.385960 -4.070055 -1.602926 4.895487 6.692821 -3.529617 -5.647491 -9.541154 -14.757362 -138.882107 -72.751273 151.567907 -16.089066 -6.767702 -18.410807 -2.588802 10.160292 1.441762 14.546545 -7.454907 0.461582 134.241195 -61.039307 -159.281034 16.408325 -2.595911 40.142564 10.848316 -56.039238 -12.352936 -137.351489 74.223908 -130.445253 0.331027 -21.889885 4.371442 0.004357 -0.061732 0.001978 -15.447959 -55.883367 9.904104 138.325047 78.069652 135.904112 -4.165426 -20.532680 -2.184667 0.004679 0.046396 0.002125
-10.853118 131.465954 26.361212 178.865852 -22.502346 -3.304069 -1.699379 11.281789 2.518961 -0.136332 0.794552 0.190287 -0.232189 1.361839 0.324974 -1.578674 10.332504 2.343673 -0.717016 20.405965 -1.660125 -0.387235 -4.067670 -1.605925 4.886398 6.689796 -3.532453 -5.663733 -9.549187 -14.739078 -138.958103 -72.717659 151.645954 -16.080234 -6.765683 -18.411039 -2.584474 10.152610 1.431356 14.563718 -7.460497 0.449909 134.289452 -61.041455 -159.309136 16.399734 -2.618807 40.164558 10.769020 -56.051741 -12.275674 -137.378155 74.223543 -130.470199 0.321502 -21.929747 4.373188 -0.001868 -0.021665 -0.000848 -15.527717 -55.863525 9.980541 138.307241 78.080753 135.885919 -4.151678 -20.491292 -2.193519 -0.002115 0.014263 -0.000960
-10.726719 129.027256 26.421098 178.850670 -22.509191 -3.313543 -1.686359 11.286177 2.534073 -0.135894 0.794560 0.190417 -0.236288 1.357799 0.324666 -1.571954 10.330940 2.344798 -0.720408 20.417647 -1.657482 -0.392831 -4.055939 -1.597063 4.880632 6.694935 -3.534125 -5.680001 -9.554192 -14.722388 -138.982993 -72.708628 151.686324 -16.081127 -6.797736 -18.420254 -2.584030 10.160008 1.428310 14.580702 -7.470636 0.431218 134.291540 -61.056612 -159.320639 16.390415 -2.661815 40.203014 10.741803 -56.055376 -12.221359 -137.356283 74.215933 -130.455696 0.315014 -21.941775 4.373211 0.001101 -0.011357 0.000500 -15.541109 -55.849449 10.011356 138.301791 78.085844 135.878101 -4.137156 -20.477269 -2.198896 -0.006554 0.004533 -0.002976
-10.657400 127.685917 26.454681 178.849136 -22.512244 -3.319060 -1.691156 11.284817 2.538380 -0.141766 0.789712 0.189693 -0.230753 1.361632 0.324738 -1.569047 10.332959 2.343149 -0.716824 20.422735 -1.654570 -0.395612 -4.049778 -1.591390 4.883741 6.698089 -3.532584 -5.690239 -9.556993 -14.706800 -139.011840 -72.698891 151.721325 -16.084332 -6.817476 -18.427936 -2.578754 10.160389 1.427815 14.592105 -7.478308 0.415377 134.300030 -61.057083 -159.314350 16.395632 -2.664347 40.216654 10.731552 -56.055717 -12.206732 -137.357497 74.213335 -130.456606 0.324042 -21.949257 4.369840 0.000065 -0.006167 0.000029 -15.551596 -55.842703 10.023722 138.305107 78.094494 135.879977 -4.079850 -20.463411 -2.216837 -0.006106 0.000137 -0.002772
-10.623599 127.047302 26.471155 178.844791 -22.515317 -3.323426 -1.698659 11.279418 2.541387 -0.135551 0.794540 0.190134 -0.227207 1.363592 0.324560 -1.570677 10.331080 2.343170 -0.720057 20.431516 -1.650720 -0.393150 -4.047439 -1.590689 4.874712 6.698847 -3.530478 -5.678990 -9.555604 -14.699470 -139.037493 -72.670714 151.742817 -16.072045 -6.797747 -18.432499 -2.583152 10.160539 1.424560 14.607251 -7.486873 0.402014 134.297717 -61.038623 -159.279467 16.396870 -2.642230 40.218670 10.715934 -56.058412 -12.183318 -137.362171 74.216577 -130.466159 0.318691 -21.949829 4.372661 -0.000694 -0.005044 -0.000315 -15.559737 -55.836716 10.036714 138.331274 78.103267 135.908996 -4.011127 -20.454631 -2.243634 -0.001638 -0.001666 -0.000744
-10.608749 126.786390 26.477982 178.841301 -22.521000 -3.328827 -1.702391 11.281704 2.546883 -0.135371 0.794413 0.190183 -0.220805 1.365520 0.324254 -1.571153 10.330773 2.343478 -0.726840 20.438793 -1.638037 -0.395750 -4.033334 -1.584185 4.874045 6.697489 -3.530371 -5.675477 -9.552263 -14.697427 -139.034479 -72.639777 151.737032 -16.067337 -6.819929 -18.448339 -2.586149 10.156795 1.421255 14.616057 -7.493844 0.393807 134.279300 -61.044461 -159.250395 16.401608 -2.648432 40.230257 10.697300 -56.053967 -12.160892 -137.351524 74.214101 -130.454010 0.321767 -21.952338 4.370087 -0.000190 -0.003673 -0.000086 -15.574091 -55.827173 10.050928 138.321819 78.104585 135.891987 -3.904219 -20.445543 -2.279837 0.003881 -0.001319 0.001762
